# xmcd
#
# Track frame offsets:
#	150
#	16256
#	33254
#	41835
#	55886
#	66988
#	78983
#	91906
#	105923
#	119732
#	131233
#	150022
#	164643
#	176172
#
# Disc length: 2473 seconds
#
# Revision: 1
# Processed by: cddbd v1.5.1PL0 Copyright (c) Steve Scherf et al.
# Submitted via: audiograbber 1.83.01
#
DISCID=b409a70e
DTITLE=Ronny - Mein Portrait
DYEAR=2005
DGENRE=
TTITLE0=Es hängt ein Pferdehalfter an der Wand
TTITLE1=Sag´warum willst du von mir gehen (High Noon)
TTITLE2=Muss i denn, muss i denn zum Städele hinaus
TTITLE3=Tom Dooley
TTITLE4=Das Haus am Ohio
TTITLE5=Aloha Oe
TTITLE6=Mitg dem Wind muss ich weiterzieh´n (Wandrin´Star)
TTITLE7=Nur noch einmal im Haus (Detroit City)
TTITLE8=Wenn du einsam bist
TTITLE9=Ein Stern geht auf
TTITLE10=Einmal vergeht der schönste Sommer
TTITLE11=Swanee River
TTITLE12=Sweet Marylie (Home on the rage)
TTITLE13=Oh Susanna
EXTD=
EXTT0=
EXTT1=
EXTT2=
EXTT3=
EXTT4=
EXTT5=
EXTT6=
EXTT7=
EXTT8=
EXTT9=
EXTT10=
EXTT11=
EXTT12=
EXTT13=
PLAYORDER=
